<svg width="478" height="370" viewBox="0 0 478 370" fill="none" xmlns="http://www.w3.org/2000/svg">
<g clip-path="url(#clip0_11_59)">
<path d="M78.1633 369.058C78.1633 369.58 78.4493 370 78.8052 370H398.915C399.274 370 399.557 369.581 399.557 369.058C399.557 368.536 399.271 368.117 398.915 368.117H78.8052C78.4493 368.117 78.1633 368.536 78.1633 369.058Z" fill="#CCCCCC"/>
<path d="M193.985 365.953H182.555V367.971H193.985V365.953Z" fill="#B6B3C5"/>
<path d="M295.164 366.29H283.735V368.308H295.164V366.29Z" fill="#B6B3C5"/>
<path d="M255.247 276.147C254.611 279.999 252.628 283.5 249.653 286.026C246.677 288.552 242.902 289.938 238.999 289.938C235.097 289.938 231.322 288.552 228.346 286.026C225.37 283.5 223.388 279.999 222.751 276.147H181.182V366.29H296.819V276.147H255.247Z" fill="#D6D6E3"/>
<path d="M297.154 359.148H181.519V362.286H297.154V359.148Z" fill="#090814"/>
<path d="M471.554 278.502H6.44647C4.73734 278.5 3.09876 277.82 1.89023 276.61C0.68169 275.401 0.00190009 273.761 0 272.051L0 6.45106C0.00174176 4.74077 0.681462 3.10102 1.89001 1.89161C3.09857 0.682195 4.73724 0.00190155 6.44647 0H471.554C473.263 0.00205936 474.901 0.682321 476.11 1.89157C477.318 3.10082 477.998 4.74032 478 6.45046V272.051C477.998 273.761 477.318 275.401 476.11 276.61C474.901 277.819 473.263 278.5 471.554 278.502Z" fill="#090814"/>
<path d="M466.836 10.7627H11.6936V267.738H466.836V10.7627Z" fill="white"/>
<path d="M412.491 58.9957H332.823C330.18 58.9957 328.038 61.1397 328.038 63.7845V122.426C328.038 125.071 330.18 127.215 332.823 127.215H412.491C415.134 127.215 417.277 125.071 417.277 122.426V63.7845C417.277 61.1397 415.134 58.9957 412.491 58.9957Z" fill="#F2F2F2"/>
<path d="M412.843 62.3862H332.472V123.825H412.843V62.3862Z" fill="white"/>
<path d="M374.069 107.96H374.1C379.54 107.675 384.668 105.327 388.44 101.394C392.212 97.4614 394.345 92.2385 394.406 86.7878C394.467 81.3371 392.451 76.0678 388.768 72.0514C385.085 68.035 380.011 65.573 374.579 65.1661C374.512 65.1608 374.444 65.1694 374.381 65.1915C374.317 65.2135 374.259 65.2485 374.209 65.2942C374.16 65.3391 374.12 65.3938 374.093 65.4548C374.066 65.5158 374.052 65.5818 374.051 65.6485L373.583 107.466C373.582 107.596 373.632 107.721 373.723 107.814C373.814 107.906 373.938 107.959 374.068 107.961L374.069 107.96Z" fill="#090814"/>
<path d="M357.263 72.0786C357.43 72.0807 357.589 72.1487 357.706 72.2678L372.093 86.9902C372.151 87.0491 372.196 87.1188 372.227 87.1955C372.258 87.2721 372.273 87.3542 372.272 87.4368L372.048 107.447C372.047 107.532 372.029 107.617 371.994 107.696C371.959 107.774 371.908 107.844 371.844 107.902C371.781 107.961 371.706 108.006 371.624 108.034C371.542 108.062 371.456 108.074 371.369 108.067C367.369 107.768 363.532 106.358 360.289 103.996C357.045 101.635 354.524 98.4146 353.009 94.6982C351.494 90.9818 351.044 86.9162 351.711 82.9583C352.378 79.0003 354.134 75.3069 356.784 72.2929C356.841 72.2279 356.911 72.1754 356.989 72.1387C357.068 72.1019 357.153 72.0817 357.239 72.0792L357.263 72.0786Z" fill="#E6E6E6"/>
<path d="M371.893 64.9925C372.053 64.9943 372.207 65.0572 372.324 65.1684C372.386 65.2277 372.435 65.2992 372.468 65.3784C372.502 65.4576 372.518 65.5429 372.517 65.6288L372.315 83.6824C372.313 83.8066 372.275 83.9276 372.205 84.03C372.134 84.1325 372.036 84.2119 371.92 84.2581C371.805 84.3043 371.679 84.3154 371.557 84.2898C371.436 84.2643 371.325 84.2033 371.238 84.1146L358.683 71.2675C358.624 71.2064 358.577 71.1338 358.547 71.0542C358.516 70.9745 358.502 70.8894 358.505 70.8041C358.508 70.7188 358.529 70.635 358.565 70.5578C358.602 70.4807 358.654 70.4117 358.718 70.3553C362.369 67.1393 366.998 65.2499 371.855 64.9925H371.893Z" fill="#6C63FF"/>
<path d="M365.425 116.63C365.417 117.392 365.183 118.134 364.753 118.763C364.323 119.391 363.717 119.878 363.01 120.162C362.303 120.446 361.529 120.513 360.784 120.356C360.039 120.199 359.357 119.825 358.825 119.28C358.293 118.736 357.934 118.045 357.794 117.296C357.653 116.548 357.738 115.774 358.038 115.074C358.337 114.373 358.837 113.777 359.475 113.361C360.112 112.945 360.859 112.728 361.62 112.736C362.641 112.748 363.615 113.165 364.329 113.895C365.042 114.625 365.437 115.609 365.425 116.63Z" fill="#6C63FF"/>
<path d="M376.421 116.754C376.413 117.515 376.179 118.257 375.749 118.886C375.319 119.515 374.712 120.002 374.006 120.285C373.299 120.569 372.525 120.636 371.78 120.48C371.035 120.323 370.353 119.948 369.821 119.403C369.288 118.859 368.93 118.169 368.789 117.42C368.649 116.671 368.734 115.898 369.033 115.197C369.333 114.497 369.833 113.901 370.47 113.485C371.108 113.069 371.855 112.851 372.616 112.86C373.637 112.871 374.611 113.288 375.325 114.018C376.038 114.748 376.433 115.732 376.421 116.754Z" fill="#090814"/>
<path d="M387.417 116.876C387.408 117.638 387.174 118.38 386.744 119.009C386.314 119.637 385.708 120.124 385.001 120.408C384.295 120.692 383.52 120.759 382.775 120.602C382.03 120.445 381.348 120.071 380.816 119.526C380.284 118.982 379.925 118.291 379.785 117.542C379.645 116.794 379.73 116.02 380.029 115.32C380.328 114.619 380.828 114.023 381.466 113.607C382.103 113.191 382.85 112.974 383.611 112.982C384.632 112.994 385.606 113.411 386.32 114.141C387.034 114.871 387.428 115.855 387.417 116.876Z" fill="#E6E6E6"/>
<path d="M411.552 137.951H331.884C329.241 137.951 327.098 140.095 327.098 142.74V201.381C327.098 204.026 329.241 206.17 331.884 206.17H411.552C414.195 206.17 416.338 204.026 416.338 201.381V142.74C416.338 140.095 414.195 137.951 411.552 137.951Z" fill="#F2F2F2"/>
<path d="M411.903 141.341H331.532V202.781H411.903V141.341Z" fill="white"/>
<path d="M345.169 161.534C347.012 161.534 348.506 160.039 348.506 158.195C348.506 156.351 347.012 154.856 345.169 154.856C343.326 154.856 341.832 156.351 341.832 158.195C341.832 160.039 343.326 161.534 345.169 161.534Z" fill="#090814"/>
<path d="M398.787 155.596C399.387 155.596 399.963 155.835 400.387 156.26C400.811 156.684 401.05 157.26 401.05 157.861C401.05 158.461 400.811 159.037 400.387 159.462C399.963 159.887 399.387 160.125 398.787 160.125H363.69C363.089 160.125 362.514 159.887 362.089 159.462C361.665 159.037 361.426 158.461 361.426 157.861C361.426 157.26 361.665 156.684 362.089 156.26C362.514 155.835 363.089 155.596 363.69 155.596H398.787ZM398.787 155.041H363.69C363.316 155.036 362.945 155.105 362.599 155.244C362.252 155.383 361.937 155.59 361.671 155.852C361.405 156.115 361.193 156.427 361.049 156.772C360.905 157.117 360.831 157.487 360.831 157.861C360.831 158.234 360.905 158.604 361.049 158.949C361.193 159.294 361.405 159.606 361.671 159.869C361.937 160.131 362.252 160.338 362.599 160.477C362.945 160.616 363.316 160.685 363.69 160.68H398.787C399.16 160.685 399.531 160.616 399.878 160.477C400.224 160.338 400.54 160.131 400.806 159.869C401.072 159.606 401.283 159.294 401.427 158.949C401.571 158.604 401.645 158.234 401.645 157.861C401.645 157.487 401.571 157.117 401.427 156.772C401.283 156.427 401.072 156.115 400.806 155.852C400.54 155.59 400.224 155.383 399.878 155.244C399.531 155.105 399.16 155.036 398.787 155.041Z" fill="#3F3D56"/>
<path d="M384.938 160.68H358.517C357.777 160.669 357.071 160.368 356.551 159.84C356.032 159.313 355.74 158.602 355.74 157.861C355.74 157.121 356.032 156.41 356.551 155.882C357.071 155.355 357.777 155.053 358.517 155.042H384.938C385.678 155.053 386.384 155.355 386.903 155.882C387.423 156.41 387.714 157.121 387.714 157.861C387.714 158.602 387.423 159.313 386.903 159.84C386.384 160.368 385.678 160.669 384.938 160.68Z" fill="#6C63FF"/>
<path d="M345.169 175.4C347.012 175.4 348.506 173.905 348.506 172.061C348.506 170.217 347.012 168.722 345.169 168.722C343.326 168.722 341.832 170.217 341.832 172.061C341.832 173.905 343.326 175.4 345.169 175.4Z" fill="#090814"/>
<path d="M398.787 169.462C399.387 169.462 399.963 169.701 400.387 170.126C400.811 170.55 401.05 171.126 401.05 171.727C401.05 172.327 400.811 172.903 400.387 173.328C399.963 173.753 399.387 173.991 398.787 173.991H363.689C363.089 173.991 362.514 173.753 362.089 173.328C361.665 172.903 361.426 172.327 361.426 171.727C361.426 171.126 361.665 170.55 362.089 170.126C362.514 169.701 363.089 169.462 363.689 169.462H398.787ZM398.787 168.907H363.689C362.949 168.918 362.243 169.22 361.724 169.747C361.204 170.275 360.913 170.986 360.913 171.726C360.913 172.467 361.204 173.178 361.724 173.705C362.243 174.233 362.949 174.535 363.689 174.546H398.787C399.16 174.551 399.531 174.482 399.877 174.343C400.224 174.204 400.54 173.997 400.806 173.735C401.072 173.472 401.283 173.16 401.427 172.815C401.571 172.47 401.645 172.1 401.645 171.726C401.645 171.353 401.571 170.983 401.427 170.638C401.283 170.293 401.072 169.981 400.806 169.718C400.54 169.456 400.224 169.249 399.877 169.11C399.531 168.971 399.16 168.902 398.787 168.907Z" fill="#3F3D56"/>
<path d="M394.915 174.546H358.517C357.777 174.535 357.071 174.234 356.551 173.706C356.032 173.179 355.74 172.468 355.74 171.727C355.74 170.986 356.032 170.276 356.551 169.748C357.071 169.221 357.777 168.919 358.517 168.908H394.915C395.655 168.919 396.361 169.221 396.881 169.748C397.4 170.276 397.691 170.986 397.691 171.727C397.691 172.468 397.4 173.179 396.881 173.706C396.361 174.234 395.655 174.535 394.915 174.546Z" fill="#6C63FF"/>
<path d="M345.169 189.265C347.012 189.265 348.506 187.77 348.506 185.926C348.506 184.082 347.012 182.587 345.169 182.587C343.326 182.587 341.832 184.082 341.832 185.926C341.832 187.77 343.326 189.265 345.169 189.265Z" fill="#090814"/>
<path d="M398.787 183.328C399.387 183.328 399.963 183.567 400.387 183.991C400.811 184.416 401.05 184.992 401.05 185.593C401.05 186.193 400.811 186.769 400.387 187.194C399.963 187.619 399.387 187.857 398.787 187.857H363.689C363.089 187.857 362.514 187.619 362.089 187.194C361.665 186.769 361.426 186.193 361.426 185.593C361.426 184.992 361.665 184.416 362.089 183.991C362.514 183.567 363.089 183.328 363.689 183.328H398.787ZM398.787 182.773H363.689C362.949 182.784 362.243 183.086 361.724 183.613C361.204 184.141 360.913 184.852 360.913 185.592C360.913 186.333 361.204 187.044 361.724 187.571C362.243 188.099 362.949 188.401 363.689 188.411H398.787C399.16 188.417 399.531 188.348 399.877 188.209C400.224 188.07 400.54 187.863 400.806 187.6C401.072 187.338 401.283 187.025 401.427 186.681C401.571 186.336 401.645 185.966 401.645 185.592C401.645 185.219 401.571 184.849 401.427 184.504C401.283 184.159 401.072 183.847 400.806 183.584C400.54 183.322 400.224 183.115 399.877 182.976C399.531 182.837 399.16 182.768 398.787 182.773Z" fill="#3F3D56"/>
<path d="M373.298 188.413H358.517C357.777 188.402 357.071 188.101 356.551 187.573C356.032 187.046 355.74 186.335 355.74 185.594C355.74 184.853 356.032 184.143 356.551 183.615C357.071 183.088 357.777 182.786 358.517 182.775H373.298C374.038 182.786 374.744 183.088 375.264 183.615C375.783 184.143 376.075 184.853 376.075 185.594C376.075 186.335 375.783 187.046 375.264 187.573C374.744 188.101 374.038 188.402 373.298 188.413Z" fill="#6C63FF"/>
<path d="M299.092 58.9957H66.3317C63.6886 58.9957 61.5459 61.1397 61.5459 63.7845V201.381C61.5459 204.026 63.6886 206.17 66.3317 206.17H299.092C301.735 206.17 303.878 204.026 303.878 201.381V63.7845C303.878 61.1397 301.735 58.9957 299.092 58.9957Z" fill="#F2F2F2"/>
<path d="M299.061 63.39H66.3628V201.442H299.061V63.39Z" fill="white"/>
<path d="M270.202 175H100.569C100.428 175 100.294 174.945 100.194 174.845C100.094 174.745 100.039 174.61 100.039 174.47V93.1145C100.039 92.9736 100.095 92.8384 100.194 92.7388C100.294 92.6392 100.429 92.5832 100.569 92.5832C100.71 92.5832 100.845 92.6392 100.945 92.7388C101.044 92.8384 101.1 92.9736 101.1 93.1145V173.939H270.202C270.343 173.939 270.478 173.995 270.577 174.094C270.677 174.194 270.733 174.329 270.733 174.47C270.733 174.611 270.677 174.746 270.577 174.845C270.478 174.945 270.343 175.001 270.202 175.001V175Z" fill="#090814"/>
<path d="M136.812 169.158H121.383C120.966 169.157 120.565 168.991 120.27 168.695C119.974 168.4 119.808 167.999 119.808 167.581V146.299C119.808 145.881 119.974 145.48 120.27 145.185C120.565 144.889 120.966 144.723 121.383 144.722H136.812C137.23 144.723 137.63 144.889 137.926 145.185C138.221 145.48 138.387 145.881 138.388 146.299V167.581C138.387 167.999 138.221 168.4 137.926 168.695C137.63 168.991 137.23 169.157 136.812 169.158Z" fill="#6C63FF"/>
<path d="M164.951 169.158H149.517C149.099 169.157 148.699 168.991 148.403 168.695C148.108 168.4 147.942 167.999 147.941 167.581V126.113C147.942 125.695 148.108 125.294 148.403 124.999C148.699 124.703 149.099 124.537 149.517 124.536H164.951C165.369 124.537 165.77 124.703 166.065 124.999C166.36 125.294 166.527 125.695 166.527 126.113V167.581C166.527 167.999 166.36 168.4 166.065 168.695C165.77 168.991 165.369 169.157 164.951 169.158Z" fill="#6C63FF"/>
<path d="M193.085 169.158H177.656C177.238 169.157 176.838 168.991 176.542 168.695C176.247 168.4 176.081 167.999 176.08 167.581V146.299C176.081 145.881 176.247 145.48 176.542 145.185C176.838 144.889 177.238 144.723 177.656 144.722H193.085C193.502 144.723 193.903 144.889 194.198 145.185C194.494 145.48 194.66 145.881 194.66 146.299V167.581C194.66 167.999 194.494 168.4 194.198 168.695C193.903 168.991 193.502 169.157 193.085 169.158Z" fill="#6C63FF"/>
<path d="M221.221 169.158H205.792C205.384 169.166 204.989 169.013 204.694 168.731C204.398 168.448 204.227 168.061 204.217 167.652V118.073C204.227 117.665 204.398 117.277 204.694 116.995C204.989 116.713 205.384 116.559 205.792 116.568H221.221C221.629 116.559 222.024 116.713 222.32 116.995C222.615 117.277 222.787 117.665 222.797 118.073V167.652C222.787 168.06 222.615 168.448 222.32 168.73C222.024 169.012 221.629 169.166 221.221 169.157V169.158Z" fill="#6C63FF"/>
<path d="M249.357 169.157H233.928C233.51 169.157 233.109 168.99 232.814 168.695C232.519 168.399 232.353 167.998 232.352 167.58V103.803C232.353 103.385 232.519 102.984 232.814 102.689C233.109 102.393 233.51 102.227 233.928 102.226H249.357C249.774 102.227 250.175 102.393 250.47 102.689C250.766 102.984 250.932 103.385 250.932 103.803V167.581C250.932 167.999 250.765 168.399 250.47 168.695C250.175 168.99 249.774 169.157 249.357 169.157Z" fill="#6C63FF"/>
<path d="M129.098 138.347C130.857 138.347 132.282 136.92 132.282 135.16C132.282 133.4 130.857 131.973 129.098 131.973C127.339 131.973 125.913 133.4 125.913 135.16C125.913 136.92 127.339 138.347 129.098 138.347Z" fill="#090814"/>
<path d="M157.234 117.63C158.993 117.63 160.419 116.204 160.419 114.444C160.419 112.683 158.993 111.257 157.234 111.257C155.475 111.257 154.049 112.683 154.049 114.444C154.049 116.204 155.475 117.63 157.234 117.63Z" fill="#090814"/>
<path d="M185.37 138.347C187.129 138.347 188.555 136.92 188.555 135.16C188.555 133.4 187.129 131.973 185.37 131.973C183.611 131.973 182.185 133.4 182.185 135.16C182.185 136.92 183.611 138.347 185.37 138.347Z" fill="#090814"/>
<path d="M213.506 107.538C215.265 107.538 216.691 106.111 216.691 104.351C216.691 102.591 215.265 101.164 213.506 101.164C211.747 101.164 210.321 102.591 210.321 104.351C210.321 106.111 211.747 107.538 213.506 107.538Z" fill="#090814"/>
<path d="M241.643 95.8506C243.402 95.8506 244.828 94.4238 244.828 92.6637C244.828 90.9036 243.402 89.4768 241.643 89.4768C239.884 89.4768 238.458 90.9036 238.458 92.6637C238.458 94.4238 239.884 95.8506 241.643 95.8506Z" fill="#090814"/>
<path d="M185.438 135.875L157.235 114.737L129.418 135.585L128.781 134.735L157.236 113.409L185.304 134.446L213.198 103.903L213.309 103.857L241.445 92.5141L241.842 93.4994L213.818 104.798L185.438 135.875Z" fill="#090814"/>
</g>
<defs>
<clipPath id="clip0_11_59">
<rect width="478" height="370" fill="white"/>
</clipPath>
</defs>
</svg>
